<svg xmlns="http://www.w3.org/2000/svg" width="50" height="50" viewBox="0 0 50 50">
  <path id="Path_143" data-name="Path 143" d="M12,37.5a2.327,2.327,0,0,0,2.5,2.083H17v7.292C17,48.6,18.675,50,20.75,50s3.75-1.4,3.75-3.125V39.583h5v7.292C29.5,48.6,31.175,50,33.25,50S37,48.6,37,46.875V39.583h2.5A2.327,2.327,0,0,0,42,37.5V16.667H12ZM5.75,16.667c-2.075,0-3.75,1.4-3.75,3.125V34.375C2,36.1,3.675,37.5,5.75,37.5S9.5,36.1,9.5,34.375V19.792C9.5,18.063,7.825,16.667,5.75,16.667Zm42.5,0c-2.075,0-3.75,1.4-3.75,3.125V34.375c0,1.729,1.675,3.125,3.75,3.125S52,36.1,52,34.375V19.792C52,18.063,50.325,16.667,48.25,16.667ZM35.825,4.5l3.25-2.708a.917.917,0,0,0,0-1.479,1.416,1.416,0,0,0-1.775,0L33.6,3.4A17.016,17.016,0,0,0,27,2.083,17.268,17.268,0,0,0,20.35,3.4L16.625.313a1.416,1.416,0,0,0-1.775,0,.917.917,0,0,0,0,1.479l3.275,2.729C14.425,6.792,12,10.438,12,14.583H42C42,10.438,39.575,6.771,35.825,4.5ZM22,10.417H19.5V8.333H22Zm12.5,0H32V8.333h2.5Z" transform="translate(-2)" fill="#666"/>
</svg>
