<svg xmlns="http://www.w3.org/2000/svg" width="50" height="50" viewBox="0 0 50 50">
  <path id="Path_1824" data-name="Path 1824" d="M47.222,8.156A4.219,4.219,0,0,0,43.278,5H12.722A4.245,4.245,0,0,0,8.778,8.156L3,26.875v25A2.976,2.976,0,0,0,5.778,55H8.556a2.976,2.976,0,0,0,2.778-3.125V48.75H44.667v3.125A2.976,2.976,0,0,0,47.444,55h2.778A2.976,2.976,0,0,0,53,51.875v-25Zm-34.5,31.219a4.444,4.444,0,0,1-4.167-4.687A4.444,4.444,0,0,1,12.722,30a4.444,4.444,0,0,1,4.167,4.688A4.444,4.444,0,0,1,12.722,39.375Zm30.556,0a4.444,4.444,0,0,1-4.167-4.687A4.444,4.444,0,0,1,43.278,30a4.444,4.444,0,0,1,4.167,4.688A4.444,4.444,0,0,1,43.278,39.375ZM8.556,23.75,12.722,9.688H43.278L47.444,23.75Z" transform="translate(-3 -5)" fill="#666"/>
</svg>
