<svg xmlns="http://www.w3.org/2000/svg" width="37.799" height="48.742" viewBox="0 0 37.799 48.742">
  <g id="Group_11402" data-name="Group 11402" transform="translate(-21668.057 -2975)">
    <path id="Path_117" data-name="Path 117" d="M42.8,21.583V16.716a15.935,15.935,0,0,1-10.989-4.453L28.328,8.784a5.225,5.225,0,0,0-1.647-1.095c-.027,0-.027-.024-.054-.024H26.6a5.878,5.878,0,0,0-3.213-.633A5.167,5.167,0,0,0,18.5,12.069v14.38a5.169,5.169,0,0,0,5.4,4.866H37.4V43.481h5.4V30.1a5.169,5.169,0,0,0-5.4-4.866H29.3V16.838A24.517,24.517,0,0,0,42.8,21.583ZM26.141,33.748A8.1,8.1,0,0,1,18.5,38.615c-4.482,0-8.1-3.26-8.1-7.3a7.426,7.426,0,0,1,5.4-6.886V19.393C9.644,20.512,5,25.427,5,31.315c0,6.715,6.048,12.166,13.5,12.166,6.534,0,11.988-4.185,13.23-9.733Z" transform="translate(21663.057 2980.262)" fill="#666"/>
    <circle id="Ellipse_145" data-name="Ellipse 145" cx="6" cy="6" r="6" transform="translate(21687 2975)" fill="#666"/>
  </g>
</svg>
