<svg xmlns="http://www.w3.org/2000/svg" width="50" height="50" viewBox="0 0 50 50">
  <path id="Path_454" data-name="Path 454" d="M26,10.341A16.121,16.121,0,0,0,10.091,26.689h4.545A11.528,11.528,0,0,1,26,15.012,11.528,11.528,0,0,1,37.364,26.689h4.545A16.121,16.121,0,0,0,26,10.341Zm2.273,21.7a5.849,5.849,0,0,0,3.409-5.348,5.684,5.684,0,1,0-11.364,0,5.875,5.875,0,0,0,3.409,5.348v7.707l-7.75,7.964L19.182,51,26,43.994,32.818,51l3.2-3.293-7.75-7.964ZM26,1C12.2,1,1,12.513,1,26.689H5.545C5.545,15.082,14.7,5.671,26,5.671s20.455,9.411,20.455,21.018H51C51,12.513,39.8,1,26,1Z" transform="translate(-1 -1)" fill="#666"/>
</svg>
