<svg xmlns="http://www.w3.org/2000/svg" width="50" height="50" viewBox="0 0 50 50">
  <path id="Path_1874" data-name="Path 1874" d="M16,42a5,5,0,1,0,5,5A4.993,4.993,0,0,0,16,42ZM1,2V7H6l9,18.975L11.625,32.1A4.834,4.834,0,0,0,11,34.5a5.015,5.015,0,0,0,5,5H46v-5H17.05a.619.619,0,0,1-.625-.625l.075-.3L18.75,29.5H37.375a4.976,4.976,0,0,0,4.375-2.575L50.7,10.7A2.442,2.442,0,0,0,51,9.5,2.507,2.507,0,0,0,48.5,7H11.525L9.175,2H1ZM41,42a5,5,0,1,0,5,5A4.993,4.993,0,0,0,41,42Z" transform="translate(-1 -2)" fill="#666"/>
</svg>
