<svg xmlns="http://www.w3.org/2000/svg" xmlns:xlink="http://www.w3.org/1999/xlink" width="60" height="50" viewBox="0 0 60 50">
  <defs>
    <clipPath id="clip-path">
      <path id="_Icon_小olor" data-name=" Icon 小olor" d="M27.008,46.873A2.995,2.995,0,1,1,30,50,3.061,3.061,0,0,1,27.008,46.873Zm9.225-6.741a8.9,8.9,0,0,0-12.466,0,2.9,2.9,0,0,1-4.229-.079,3.226,3.226,0,0,1,.075-4.418,14.495,14.495,0,0,1,20.774,0,3.224,3.224,0,0,1,.075,4.418,2.9,2.9,0,0,1-4.229.079ZM45.06,28.555a20.317,20.317,0,0,0-30.12,0,2.9,2.9,0,0,1-4.229.076,3.229,3.229,0,0,1-.078-4.418A26.515,26.515,0,0,1,30,15.623a26.509,26.509,0,0,1,19.366,8.589,3.229,3.229,0,0,1-.078,4.418,2.9,2.9,0,0,1-4.229-.076ZM.838,16.7a3.224,3.224,0,0,1,.078-4.418,40.588,40.588,0,0,1,58.172,0,3.226,3.226,0,0,1,.073,4.418,2.9,2.9,0,0,1-4.229.073,34.8,34.8,0,0,0-49.865,0,2.9,2.9,0,0,1-2.075.881A2.929,2.929,0,0,1,.838,16.7Z" fill="#666"/>
    </clipPath>
  </defs>
  <g id="Group_2109" data-name="Group 2109" transform="translate(-1.971 -4)">
    <path id="_Icon_小olor-2" data-name=" Icon 小olor" d="M27.008,46.873A2.995,2.995,0,1,1,30,50,3.061,3.061,0,0,1,27.008,46.873Zm9.225-6.741a8.9,8.9,0,0,0-12.466,0,2.9,2.9,0,0,1-4.229-.079,3.226,3.226,0,0,1,.075-4.418,14.495,14.495,0,0,1,20.774,0,3.224,3.224,0,0,1,.075,4.418,2.9,2.9,0,0,1-4.229.079ZM45.06,28.555a20.317,20.317,0,0,0-30.12,0,2.9,2.9,0,0,1-4.229.076,3.229,3.229,0,0,1-.078-4.418A26.515,26.515,0,0,1,30,15.623a26.509,26.509,0,0,1,19.366,8.589,3.229,3.229,0,0,1-.078,4.418,2.9,2.9,0,0,1-4.229-.076ZM.838,16.7a3.224,3.224,0,0,1,.078-4.418,40.588,40.588,0,0,1,58.172,0,3.226,3.226,0,0,1,.073,4.418,2.9,2.9,0,0,1-4.229.073,34.8,34.8,0,0,0-49.865,0,2.9,2.9,0,0,1-2.075.881A2.929,2.929,0,0,1,.838,16.7Z" transform="translate(1.97 4)" fill="#666"/>
  </g>
</svg>
