<svg xmlns="http://www.w3.org/2000/svg" width="17.991" height="14.393" viewBox="0 0 17.991 14.393"><defs><style>.a{fill:#777;}</style></defs><path class="a" d="M19.091,6H2.9a.9.9,0,0,0-.9.9v6a.9.9,0,0,0,.9.9H19.091a.9.9,0,0,0,.9-.9v-6A.9.9,0,0,0,19.091,6ZM3.5,6.6H18.491V9.9a.3.3,0,0,1-.3.3H3.8a.3.3,0,0,1-.3-.3Zm14.692,6.6H3.8V11.7H18.192Zm1.2-.3a.3.3,0,0,1-.3.3h-.3V11.4a.3.3,0,0,0-.3-.3H3.5a.3.3,0,0,0-.3.3v1.8H2.9a.3.3,0,0,1-.3-.3v-6a.3.3,0,0,1,.3-.3V9.9a.9.9,0,0,0,.9.9H18.192a.9.9,0,0,0,.9-.9V6.6a.3.3,0,0,1,.3.3Z" transform="translate(-2 -6)"/><path class="a" d="M9,26H22.793v.6H9Z" transform="translate(-6.901 -20.003)"/><path class="a" d="M31.37,35h-.6a2.121,2.121,0,0,1-.153.847,3.019,3.019,0,0,0,0,2.1,2.429,2.429,0,0,1,0,1.7,2.707,2.707,0,0,0-.189,1.051h.6a2.126,2.126,0,0,1,.153-.848,3.02,3.02,0,0,0,0-2.1,2.427,2.427,0,0,1,0-1.7A2.7,2.7,0,0,0,31.37,35Z" transform="translate(-21.904 -26.304)"/><path class="a" d="M13.37,35h-.6a2.121,2.121,0,0,1-.153.847,3.019,3.019,0,0,0,0,2.1,2.429,2.429,0,0,1,0,1.7,2.707,2.707,0,0,0-.189,1.051h.6a2.126,2.126,0,0,1,.153-.848,3.02,3.02,0,0,0,0-2.1,2.427,2.427,0,0,1,0-1.7A2.7,2.7,0,0,0,13.37,35Z" transform="translate(-9.301 -26.304)"/><path class="a" d="M49.37,35h-.6a2.121,2.121,0,0,1-.153.847,3.019,3.019,0,0,0,0,2.1,2.429,2.429,0,0,1,0,1.7,2.707,2.707,0,0,0-.189,1.051h.6a2.126,2.126,0,0,1,.153-.848,3.02,3.02,0,0,0,0-2.1,2.427,2.427,0,0,1,0-1.7A2.7,2.7,0,0,0,49.37,35Z" transform="translate(-34.507 -26.304)"/><path class="a" d="M52,10h.6v1.5H52Z" transform="translate(-37.008 -8.801)"/><path class="a" d="M52,16h.6v.6H52Z" transform="translate(-37.008 -13.002)"/></svg>