<svg xmlns="http://www.w3.org/2000/svg" width="32" height="42.482" viewBox="0 0 32 42.482">
  <g id="Group_11425" data-name="Group 11425" transform="translate(8008 21671)">
    <g id="Group_11424" data-name="Group 11424" transform="translate(-8008 -21669.018)">
      <g id="Group_7161" data-name="Group 7161">
        <path id="Path_18874" data-name="Path 18874" d="M22.565,4.217H7.361a.992.992,0,0,0,0,1.984h15.2a.992.992,0,0,0,0-1.984Z" transform="translate(-1.428 3.146)" fill="#b1b1b1"/>
        <path id="Path_18875" data-name="Path 18875" d="M22.565,7.371H7.361a.99.99,0,1,0,0,1.98h15.2a.99.99,0,1,0,0-1.98Z" transform="translate(-1.428 5.5)" fill="#b1b1b1"/>
        <path id="Path_18876" data-name="Path 18876" d="M13.888,32.576l-.749-.374a2.624,2.624,0,0,1-.527-.359h-6.4a.8.8,0,0,1-.794-.793V2.907a.8.8,0,0,1,.794-.8h21.3a.8.8,0,0,1,.794.8V17.421a2.751,2.751,0,0,1,2.079,2.258l.032-16.77A2.908,2.908,0,0,0,27.511,0H6.212A2.913,2.913,0,0,0,3.3,2.909V31.053a2.914,2.914,0,0,0,2.909,2.91H12.5Z" transform="translate(-3.303 -1.982)" fill="#b1b1b1"/>
        <circle id="Ellipse_763" data-name="Ellipse 763" cx="9.5" cy="9.5" r="9.5" transform="translate(13 18.018)" fill="#b1b1b1"/>
      </g>
      <path id="Path_21532" data-name="Path 21532" d="M0,16" transform="translate(19.5 24.5)" fill="none" stroke="#fff" stroke-width="2"/>
    </g>
    <g id="Appointment_Schedule" data-name="Appointment Schedule" transform="translate(-7991 -21647)">
      <g id="Group_822" data-name="Group 822" transform="translate(0)">
        <path id="Path_1833" data-name="Path 1833" d="M118.37,258.485a.243.243,0,0,0-.243-.243h-.849a.243.243,0,0,0-.243.243v.849a.243.243,0,0,0,.243.243h.849a.243.243,0,0,0,.243-.243v-.849Z" transform="translate(-114.431 -252.574)" fill="#fff"/>
        <path id="Path_1834" data-name="Path 1834" d="M215,258.485a.243.243,0,0,0-.243-.243h-.849a.243.243,0,0,0-.243.243v.849a.243.243,0,0,0,.243.243h.849a.243.243,0,0,0,.243-.243Z" transform="translate(-208.812 -252.574)" fill="#fff"/>
        <path id="Path_1835" data-name="Path 1835" d="M311.633,258.485a.243.243,0,0,0-.243-.243h-.849a.243.243,0,0,0-.243.243v.849a.243.243,0,0,0,.243.243h.849a.243.243,0,0,0,.243-.243Z" transform="translate(-303.186 -252.574)" fill="#fff"/>
        <path id="Path_1836" data-name="Path 1836" d="M118.37,355.118a.243.243,0,0,0-.243-.243h-.849a.243.243,0,0,0-.243.243v.848a.243.243,0,0,0,.243.243h.849a.243.243,0,0,0,.243-.243v-.848Z" transform="translate(-114.431 -347.086)" fill="#fff"/>
        <path id="Path_1837" data-name="Path 1837" d="M215,355.118a.243.243,0,0,0-.243-.243h-.849a.243.243,0,0,0-.243.243v.848a.243.243,0,0,0,.243.243h.849a.243.243,0,0,0,.243-.243Z" transform="translate(-208.812 -347.086)" fill="#fff"/>
        <path id="Path_1838" data-name="Path 1838" d="M311.633,355.118a.243.243,0,0,0-.243-.243h-.849a.243.243,0,0,0-.243.243v.848a.243.243,0,0,0,.243.243h.849a.243.243,0,0,0,.243-.243v-.848Z" transform="translate(-303.186 -347.086)" fill="#fff"/>
        <path id="Path_1839" data-name="Path 1839" d="M15.478,54.147v1.3A1.089,1.089,0,0,1,14.359,56.5h-.706a1.1,1.1,0,0,1-1.126-1.058v-1.3H9.345v1.3A1.1,1.1,0,0,1,8.22,56.5H7.514a1.089,1.089,0,0,1-1.119-1.058v-1.3a.991.991,0,0,0-.984.96v7.6a.992.992,0,0,0,1.013.966h9.025a.993.993,0,0,0,1.013-.966v-7.6A.99.99,0,0,0,15.478,54.147Zm-.328,8.083a.427.427,0,0,1-.438.415H7.141a.427.427,0,0,1-.438-.415V58.306a.427.427,0,0,1,.438-.415h7.571a.427.427,0,0,1,.438.415v3.924Z" transform="translate(-5.411 -52.954)" fill="#fff"/>
        <path id="Path_1840" data-name="Path 1840" d="M79.914,2.852h.662a.364.364,0,0,0,.364-.364V.364A.364.364,0,0,0,80.576,0h-.662a.364.364,0,0,0-.364.364V2.489A.364.364,0,0,0,79.914,2.852Z" transform="translate(-77.82 0)" fill="#fff"/>
        <path id="Path_1841" data-name="Path 1841" d="M344.822,2.852h.662a.364.364,0,0,0,.364-.364V.364A.364.364,0,0,0,345.484,0h-.662a.364.364,0,0,0-.364.364V2.489A.364.364,0,0,0,344.822,2.852Z" transform="translate(-336.546 0)" fill="#fff"/>
      </g>
    </g>
  </g>
</svg>
