<svg id="Group_6581" data-name="Group 6581" xmlns="http://www.w3.org/2000/svg" width="28.656" height="31.449" viewBox="0 0 28.656 31.449">
  <g id="Rectangle_1903" data-name="Rectangle 1903" transform="translate(3.14 3.078)">
    <rect id="Rectangle_1907" data-name="Rectangle 1907" width="4.485" height="4.485" fill="none"/>
    <path id="Path_18798" data-name="Path 18798" d="M160.865,121.474H156.38V117h4.485Zm-3.587-.892h2.691v-2.691h-2.691Z" transform="translate(-156.38 -116.995)" fill="#b1b1b1"/>
  </g>
  <g id="surface1">
    <g id="Path_18789" data-name="Path 18789">
      <path id="Path_18799" data-name="Path 18799" d="M164.011,115.159a9.2,9.2,0,0,0-5.639-4.182v-5.414a1.128,1.128,0,0,0-.3-.737l-6.462-6.783a1.091,1.091,0,0,0-.773-.334H140.577a3.857,3.857,0,0,0-3.848,3.881v19.36a3.835,3.835,0,0,0,3.813,3.859h7.869a9.173,9.173,0,1,0,15.6-9.652Zm-14.878,4.722a7.015,7.015,0,0,1,7-7.007h0a7.006,7.006,0,1,1,.109,14.012h-.109A7.015,7.015,0,0,1,149.134,119.88ZM151.9,101.5l2.841,2.99h-1.758a1.087,1.087,0,0,1-1.08-1.075Zm-9.587,16.768h4.794a9.081,9.081,0,0,0,.294,4.373h-6.828a1.679,1.679,0,0,1-1.678-1.67V101.591a1.7,1.7,0,0,1,1.684-1.711h9.159v3.542a3.252,3.252,0,0,0,3.24,3.247h3.229v4.03h-.061a9.3,9.3,0,0,0-5.952,2.176H142.3a1.083,1.083,0,0,0,0,2.165h6.04a10.741,10.741,0,0,0-.572,1.071H142.3a1.083,1.083,0,0,0,0,2.165Z" transform="translate(-136.729 -97.71)" fill="#b1b1b1"/>
    </g>
  </g>
  <g id="Rectangle_1904" data-name="Rectangle 1904" transform="translate(3.14 8.459)">
    <rect id="Rectangle_1908" data-name="Rectangle 1908" width="4.485" height="4.485" transform="translate(0 0)" fill="none"/>
    <path id="Path_18800" data-name="Path 18800" d="M160.865,155.135H156.38V150.65h4.485Zm-3.587-.9h2.691v-2.692h-2.691Z" transform="translate(-156.38 -150.65)" fill="#b1b1b1"/>
  </g>
  <g id="Ellipse_137" data-name="Ellipse 137" transform="translate(22.877 24.607)">
    <circle id="Ellipse_139" data-name="Ellipse 139" cx="2.691" cy="2.691" r="2.691" fill="#fff"/>
  </g>
  <g id="path" transform="translate(22.505 24.234)">
    <path id="Path_18801" data-name="Path 18801" d="M278.463,250.271a2.908,2.908,0,0,1,2.173-.887,3.036,3.036,0,0,1,2.173.887,2.91,2.91,0,0,1,.888,2.173,3.036,3.036,0,0,1-.888,2.175,2.908,2.908,0,0,1-2.173.887,3.036,3.036,0,0,1-2.173-.887,2.913,2.913,0,0,1-.888-2.175A2.975,2.975,0,0,1,278.463,250.271Zm.428,3.888a2.365,2.365,0,0,0,1.715.735,2.323,2.323,0,0,0,1.714-.735,2.368,2.368,0,0,0,.735-1.714,2.272,2.272,0,0,0-.735-1.714,2.368,2.368,0,0,0-1.714-.735,2.315,2.315,0,0,0-1.715.735,2.365,2.365,0,0,0-.735,1.714A2.638,2.638,0,0,0,278.891,254.158Zm2.05-3.276v1.224h1.226v.612h-1.226v1.226h-.61v-1.226h-1.226v-.612h1.226v-1.224Z" transform="translate(-277.573 -249.383)" fill="#b1b1b1"/>
  </g>
  <g id="path-2" data-name="path" transform="translate(4.28 4.424)">
    <path id="Path_18802" data-name="Path 18802" d="M164.265,126.807l1.416-1.417.187.187-1.6,1.6-.749-.748.187-.187Z" transform="translate(-163.52 -125.39)" fill="#5ab741"/>
  </g>
  <g id="path-3" data-name="path" transform="translate(4.471 9.91)">
    <path id="Path_18803" data-name="Path 18803" d="M166.533,159.906l-.729.729.729.73-.179.182-.729-.73-.73.73-.185-.176.73-.73-.73-.729.182-.182.73.729.729-.729Z" transform="translate(-164.71 -159.73)" fill="#bf2828"/>
  </g>
  <text id="KWD" transform="translate(14 24.316)" fill="#b1b1b1" font-size="5" font-family="Roboto-Bold, Roboto" font-weight="700" opacity="0.61"><tspan x="0" y="0">KWD</tspan></text>
</svg>
